HIERARCHY
ROOT Hips
{
  OFFSET -0.186263 101.603 265.052
  CHANNELS 6 Xposition Yposition Zposition Zrotation Xrotation Yrotation
  JOINT RightUpLeg
  {
    OFFSET -8.9458 -8.66707 0.101652
    CHANNELS 3 Zrotation Xrotation Yrotation
    JOINT RightLeg
    {
      OFFSET 0 -44.4227 1.3727
      CHANNELS 3 Zrotation Xrotation Yrotation
      JOINT RightFoot
      {
        OFFSET 0.253549 -42.0924 -1.46059
        CHANNELS 3 Zrotation Xrotation Yrotation
        JOINT RightToes
        {
          OFFSET 0.04 -4.41509 8.4991
          CHANNELS 3 Zrotation Xrotation Yrotation
          End Site
          {
            OFFSET -0.08 -0.137448 9.77979
          }
        }
      }
    }
  }
  JOINT Spine
  {
    OFFSET 0 11.8905 0
    CHANNELS 3 Zrotation Xrotation Yrotation
    JOINT Spine1
    {
      OFFSET 0 25.6574 0.127663
      CHANNELS 3 Zrotation Xrotation Yrotation
      JOINT HEad
      {
        OFFSET 0 8.73416 0.011341
        CHANNELS 3 Zrotation Xrotation Yrotation
        End Site
        {
          OFFSET -0.29 12.7742 2.51395
        }
      }
      JOINT LeftShoulder1
      {
        OFFSET 8.99 -0.362252 -0.22
        CHANNELS 3 Zrotation Xrotation Yrotation
        JOINT LeftArm
        {
          OFFSET 10.2827 -0.00338 0.322123
          CHANNELS 3 Zrotation Xrotation Yrotation
          JOINT LeftForeArm
          {
            OFFSET 32.7669 0.099144 -1.42434
            CHANNELS 3 Zrotation Xrotation Yrotation
            JOINT LeftHand
            {
              OFFSET 27.5643 0.085362 1.02216
              CHANNELS 3 Zrotation Xrotation Yrotation
              End Site
              {
                OFFSET 16.7443 -0.6 1.50291
              }
            }
          }
        }
      }
      JOINT RightShoulder
      {
        OFFSET -8.99 -0.362252 -0.22
        CHANNELS 3 Zrotation Xrotation Yrotation
        JOINT RightArm
        {
          OFFSET -10.2827 -0.00338 0.322123
          CHANNELS 3 Zrotation Xrotation Yrotation
          JOINT RightForeArm
          {
            OFFSET -32.8971 0.099144 -1.42434
            CHANNELS 3 Zrotation Xrotation Yrotation
            JOINT RightHand
            {
              OFFSET -27.4921 0.085362 1.02216
              CHANNELS 3 Zrotation Xrotation Yrotation
              End Site
              {
                OFFSET -16.6312 -0.6 1.50291
              }
            }
          }
        }
      }
    }
  }
  JOINT LeftUpLeg
  {
    OFFSET 8.9458 -8.66707 0.101652
    CHANNELS 3 Zrotation Xrotation Yrotation
    JOINT LeftLeg
    {
      OFFSET 0 -44.4227 1.3727
      CHANNELS 3 Zrotation Xrotation Yrotation
      JOINT LeftFoot
      {
        OFFSET -0.253549 -42.0924 -1.46059
        CHANNELS 3 Zrotation Xrotation Yrotation
        JOINT LeftToes
        {
          OFFSET -0.04 -4.41509 8.4991
          CHANNELS 3 Zrotation Xrotation Yrotation
          End Site
          {
            OFFSET 0.08 -0.047448 9.77979
          }
        }
      }
    }
  }
}
MOTION
Frames:	10
Frame Time:	0.0166667
-0.186263 101.603 265.052 -5.43045 0.484478 -166.566 6.47573 14.6505 -0.992108 -8.87741 15.1783 -2.3377 0.643048 -8.55064 -0.172234 0.0462048 0.000533964 0.662642 2.22113 3.8158 -0.731109 -3.11008 7.63922 0.282795 -6.02468 -1.16964 1.30633 -0 -1.59028e-015 -0 -83.6775 -42.7462 -7.42626 -17.2509 14.2705 -13.5507 0.368473 9.90896 -0.00117926 -1.34667 0.0621465 -2.64823 98.1618 -41.0928 24.0767 12.7173 14.0047 19.9341 -0.369625 9.91382 0.00119886 -12.1087 -19.2936 -0.836721 10.102 11.9634 -7.3205 0.72585 0.592726 -0.00665419 -1.45721e-010 1.83754e-010 1.70144e-011 
-0.702629 101.629 263.257 -5.30367 0.660178 -167.179 6.30962 15.4475 -1.37042 -8.94057 15.7436 -1.89666 1.12366 -7.76364 -0.152801 -1.34333 1.55598 1.97282 2.20134 3.82284 -0.732367 -2.99326 7.4579 0.265108 -5.99851 -0.845172 1.60995 -3.97569e-016 0 -0 -83.3839 -43.0653 -6.9366 -17.3475 14.2984 -13.6711 0.368473 9.90896 -0.00117926 -1.64132 0.0735647 -2.4489 98.2927 -41.2299 23.883 12.6437 13.9678 19.7665 -0.369625 9.91382 0.00119886 -12.1105 -18.3813 -0.963682 9.56741 10.2025 -6.70782 0.428235 1.38224 0.0110278 -1.08337 -2.49809 0.901735 
-1.22426 101.656 261.416 -5.17144 0.865929 -167.743 6.1602 16.2261 -1.83531 -9.0732 16.3699 -1.41526 1.63545 -6.72029 -0.142814 -3.58218 2.96953 3.77485 2.17375 3.83913 -0.742058 -2.90338 7.26878 0.249174 -5.89905 -0.460745 1.89062 3.97569e-016 -1.59028e-015 -0 -83.0603 -43.3164 -6.45882 -17.445 14.3117 -13.7017 0.368473 9.90896 -0.00117926 -1.83333 0.0804545 -2.32718 98.238 -41.4156 23.5368 12.6276 13.9474 19.627 -0.369625 9.91382 0.00119886 -12.126 -17.4563 -1.21121 9.22507 8.94964 -6.22148 0.355415 2.63165 0.00675743 -1.75158 -4.40908 1.42642 
-1.75721 101.671 259.444 -4.98921 1.17457 -168.194 6.10916 17.0533 -2.54668 -9.40199 17.0454 -0.796938 2.14651 -5.02056 -0.146315 -7.85317 4.14469 6.81885 2.11009 3.88972 -0.761897 -2.81888 7.05394 0.23345 -5.57375 0.107112 2.13031 3.97569e-016 0 -1.59028e-015 -82.6512 -43.3729 -5.97176 -17.5573 14.2862 -13.4878 0.368473 9.90896 -0.00117926 -1.78183 0.0736988 -2.43633 97.6728 -41.7036 22.7638 12.7835 13.9755 19.5601 -0.369625 9.91382 0.00119886 -12.1019 -16.4847 -1.71057 9.36048 9.13192 -6.16729 0.964631 5.60792 -0.0645895 -1.2473 -4.48469 0.617053 
-2.30437 101.717 257.407 -4.88286 1.48483 -168.529 5.95424 17.6526 -3.36477 -9.81067 18.0507 -0.172199 2.88415 -2.83912 -0.188389 -13.8142 4.76716 10.8207 2.06422 3.93639 -0.820485 -2.91169 6.83605 0.229496 -5.17493 0.727903 2.29167 3.97569e-016 0 1.59028e-015 -82.2481 -43.3503 -5.61627 -17.6466 14.2366 -13.1349 0.368473 9.90896 -0.00117926 -1.49848 0.0625219 -2.627 96.8092 -42.1166 21.7622 13.0006 14.0232 19.5442 -0.369625 9.91382 0.00119886 -12.2275 -15.5135 -2.54288 9.64534 10.0341 -6.05139 1.80452 8.34961 -0.157132 -0.663661 -4.13001 -0.19256 
-2.88208 101.843 255.328 -5.03929 1.671 -168.676 5.43272 17.7936 -4.18613 -10.2875 19.635 0.265203 4.24117 -0.243819 -0.291951 -21.4983 3.57996 15.1126 2.078 3.9451 -0.970208 -3.48773 6.55655 0.252935 -4.76941 1.3822 2.30389 3.97569e-016 0 3.18055e-015 -81.8067 -43.2992 -5.44909 -17.6919 14.1702 -12.7058 0.368473 9.90896 -0.00117926 -0.743946 0.0488543 -2.86696 95.5729 -42.7143 20.6165 13.2333 14.0748 19.5302 -0.369625 9.91382 0.00119886 -12.8423 -14.6133 -4.13593 9.846 11.3195 -5.27947 2.58972 8.96149 -0.245531 -1.19636 -4.62216 0.482777 
-3.4561 102.008 253.259 -5.24216 1.87708 -168.791 4.71498 17.4136 -5.03224 -10.6682 21.8847 0.811034 5.71641 2.84478 -0.468111 -30.2809 3.41899 21.5358 2.15888 3.92826 -1.1414 -4.12268 6.44131 0.289941 -4.4461 1.86095 2.24857 -1.98785e-016 -1.59028e-015 -3.18055e-015 -81.6612 -43.293 -5.69005 -17.6565 14.0847 -12.1749 0.368473 9.90896 -0.00117926 -0.130208 0.0454561 -2.95811 94.4733 -43.4516 19.3817 13.3999 14.122 19.6461 -0.369625 9.91382 0.00119886 -13.4127 -13.6681 -5.57527 9.93067 12.7751 -4.46439 3.22335 8.51198 -0.306687 -1.76088 -5.10386 1.23352 
-3.99784 102.187 251.261 -5.28815 2.25904 -168.985 3.91205 16.3311 -5.94029 -10.8769 25.0337 1.74736 6.99767 6.64162 -0.773308 -43.2113 5.19232 33.7991 2.40129 3.86993 -1.28654 -4.43822 6.80199 0.335355 -4.37597 1.81867 2.14634 1.98785e-016 -1.59028e-015 -0 -82.2948 -43.427 -6.79961 -17.4382 13.9591 -11.4081 0.368473 9.90896 -0.00117926 -0.291603 0.0727886 -2.63423 94.0802 -44.3442 18.1044 13.3973 14.1642 20.1341 -0.369625 9.91382 0.00119886 -13.4827 -12.5836 -5.95013 9.81453 14.1313 -4.11366 3.46424 7.29347 -0.297032 -1.50093 -5.00915 0.852073 
-4.50669 102.371 249.335 -5.30897 2.65824 -169.322 2.89409 14.6796 -6.75547 -10.8919 28.8664 3.03899 7.95418 10.6712 -1.10737 -55.0293 10.0879 46.3373 2.58595 3.82137 -1.39158 -4.60559 7.32263 0.379212 -4.39489 1.64463 2.10857 3.97569e-016 -1.59028e-015 1.59028e-015 -83.24 -43.6511 -8.12799 -17.2102 13.8561 -10.7941 0.368473 9.90896 -0.00117926 -0.922324 0.109699 -2.06743 94.1564 -45.2823 16.9087 13.2433 14.1603 20.6032 -0.369625 9.91382 0.00119886 -13.3656 -11.4149 -5.73144 9.64072 15.2164 -3.97983 3.48324 5.73877 -0.256472 -1.04109 -4.74794 0.208315 
-4.96826 102.532 247.521 -5.40091 2.97457 -169.951 1.48024 12.4946 -7.43868 -10.5567 33.3485 5.25367 8.19691 14.7149 -1.38976 -61.7492 21.6209 58.3525 2.43661 3.84904 -1.40696 -4.65343 7.82847 0.409764 -4.37654 1.63498 2.27482 1.98785e-016 -3.18055e-015 -1.59028e-015 -84.2204 -44.0041 -9.13189 -17.1337 13.8481 -10.7515 0.368473 9.90896 -0.00117926 -2.07033 0.141217 -1.31724 94.8776 -46.1752 16.0294 12.8538 14.0412 20.6592 -0.369625 9.91382 0.00119886 -13.2262 -10.1705 -4.99709 9.54363 15.7232 -4.01696 3.35354 4.43817 -0.208794 -0.734224 -4.6331 -0.23846 
